<svg xmlns="http://www.w3.org/2000/svg" viewBox="0 0 120 120"><rect width="120" height="120" rx="14" fill="#641a26"/><g fill="#e6cfa4" transform="translate(12 12) scale(0.8)"><rect x="16" y="14" width="88" height="7.5"/><rect x="22" y="25.5" width="76" height="4.2"/><path d="M28 33H52V36Q46.4 36 45.4 39.4V82.6Q46.4 86 52 86V89H28V86Q33.6 86 34.6 82.6V39.4Q33.6 36 28 36Z"/><path d="M68 33H92V36Q86.4 36 85.4 39.4V82.6Q86.4 86 92 86V89H68V86Q73.6 86 74.6 82.6V39.4Q73.6 36 68 36Z"/><path d="M45.4 60C48.6 53.4 54.6 49.6 61.6 49.6C68.6 49.6 73.6 52.8 74.6 57.4V66C73.4 60.2 69.2 55.6 63 55.6C55.6 55.6 49.6 59 45.4 62.6Z"/><rect x="20" y="93" width="80" height="7.5"/></g></svg>
